<svg width="28" height="28" viewBox="0 0 28 28" fill="none" xmlns="http://www.w3.org/2000/svg">
<path d="M26.9907 14.4413L14.9907 1.108C14.4853 0.545334 13.5147 0.545334 13.0093 1.108L1.00933 14.4413C0.836607 14.6328 0.723232 14.8703 0.682991 15.125C0.642751 15.3797 0.677379 15.6406 0.782665 15.876C0.995999 16.3573 1.47333 16.6667 2 16.6667H4.66667V26C4.66667 26.3536 4.80714 26.6928 5.05719 26.9428C5.30724 27.1929 5.64638 27.3333 6 27.3333H10C10.3536 27.3333 10.6928 27.1929 10.9428 26.9428C11.1929 26.6928 11.3333 26.3536 11.3333 26V20.6667H16.6667V26C16.6667 26.3536 16.8071 26.6928 17.0572 26.9428C17.3072 27.1929 17.6464 27.3333 18 27.3333H22C22.3536 27.3333 22.6928 27.1929 22.9428 26.9428C23.1929 26.6928 23.3333 26.3536 23.3333 26V16.6667H26C26.2582 16.6678 26.5112 16.5937 26.728 16.4535C26.9449 16.3133 27.1163 16.1131 27.2213 15.8772C27.3263 15.6413 27.3604 15.3799 27.3195 15.125C27.2785 14.87 27.1643 14.6325 26.9907 14.4413Z" fill="#F9F9F9"/>
</svg>
